<svg width="880" height="230" viewBox="0 0 880 230" xmlns="http://www.w3.org/2000/svg" role="img" aria-label="Lighthouse 100/100/100/100 — Performance, Accessibility, Best Practices, SEO">
  <title>Lighthouse 100/100/100/100</title>
  <desc>Animated count-up cards: Performance, Accessibility, Best Practices, SEO — all 100.</desc>

  <defs>
    <style>
      .card-bg     { fill: #ffffff; stroke: #e2e8f0; stroke-width: 1; }
      .card-accent { fill: #3b82f6; opacity: 0.45; }
      .icon-stroke { stroke: #3b82f6; stroke-width: 2; fill: none; stroke-linecap: round; stroke-linejoin: round; }
      .num         { font-family: system-ui, -apple-system, 'Segoe UI', Helvetica, Arial, sans-serif; font-weight: 800; font-size: 44px; fill: #3b82f6; text-anchor: middle; }
      .label       { font-family: system-ui, -apple-system, 'Segoe UI', Helvetica, Arial, sans-serif; font-weight: 500; font-size: 14px; fill: #64748b; text-anchor: middle; }
      .num-glow    { filter: drop-shadow(0 0 14px rgba(59,130,246,0.45)); }
    </style>

    <linearGradient id="iconGrad" x1="0" y1="0" x2="1" y2="1">
      <stop offset="0%"  stop-color="#3b82f6" stop-opacity="0.20"/>
      <stop offset="100%" stop-color="#3b82f6" stop-opacity="0.05"/>
    </linearGradient>

    <!-- Reusable card frame: 180x180 with brand top accent -->
    <symbol id="card" viewBox="0 0 180 180">
      <rect x="0.5" y="0.5" width="179" height="179" rx="14" ry="14" class="card-bg"/>
      <rect x="0.5" y="0.5" width="179" height="2"   rx="1"  ry="1"  class="card-accent"/>
    </symbol>
  </defs>

  <!-- ============================================================== -->
  <!-- Card 1: Performance — icon: zap                                 -->
  <!-- ============================================================== -->
  <g transform="translate(32,30)">
    <use href="#card" width="180" height="180"/>

    <!-- Icon badge -->
    <rect x="68" y="22" width="44" height="44" rx="12" fill="url(#iconGrad)"/>
    <g transform="translate(78,32)" class="icon-stroke">
      <path d="M13 2 3 14h8l-1 8 10-12h-8l1-8Z"/>
    </g>

    <!-- Count-up: 6 frames (0,20,40,60,80,100), step = 0.25s, total = 1.5s, stagger 0s -->
    <g class="num-glow">
      <text class="num" x="90" y="120">0
        <set attributeName="display" to="none" begin="0.25s"/>
      </text>
      <text class="num" x="90" y="120" display="none">20
        <set attributeName="display" to="inline" begin="0.25s"/>
        <set attributeName="display" to="none"   begin="0.50s"/>
      </text>
      <text class="num" x="90" y="120" display="none">40
        <set attributeName="display" to="inline" begin="0.50s"/>
        <set attributeName="display" to="none"   begin="0.75s"/>
      </text>
      <text class="num" x="90" y="120" display="none">60
        <set attributeName="display" to="inline" begin="0.75s"/>
        <set attributeName="display" to="none"   begin="1.00s"/>
      </text>
      <text class="num" x="90" y="120" display="none">80
        <set attributeName="display" to="inline" begin="1.00s"/>
        <set attributeName="display" to="none"   begin="1.25s"/>
      </text>
      <text class="num" x="90" y="120" display="none">100
        <set attributeName="display" to="inline" begin="1.25s"/>
        <animateTransform attributeName="transform" type="scale"
          values="1;1.15;1" dur="0.5s" begin="1.25s" additive="sum"/>
      </text>
    </g>

    <text class="label" x="90" y="160">Performance</text>
  </g>

  <!-- ============================================================== -->
  <!-- Card 2: Accessibility — icon: users (stagger +0.08s)            -->
  <!-- ============================================================== -->
  <g transform="translate(244,30)">
    <use href="#card" width="180" height="180"/>

    <rect x="68" y="22" width="44" height="44" rx="12" fill="url(#iconGrad)"/>
    <g transform="translate(78,32)" class="icon-stroke">
      <path d="M16 21v-2a4 4 0 0 0-4-4H6a4 4 0 0 0-4 4v2"/>
      <circle cx="9" cy="7" r="4"/>
      <path d="M22 21v-2a4 4 0 0 0-3-3.87"/>
      <path d="M16 3.13a4 4 0 0 1 0 7.75"/>
    </g>

    <g class="num-glow">
      <text class="num" x="90" y="120">0
        <set attributeName="display" to="none" begin="0.33s"/>
      </text>
      <text class="num" x="90" y="120" display="none">20
        <set attributeName="display" to="inline" begin="0.33s"/>
        <set attributeName="display" to="none"   begin="0.58s"/>
      </text>
      <text class="num" x="90" y="120" display="none">40
        <set attributeName="display" to="inline" begin="0.58s"/>
        <set attributeName="display" to="none"   begin="0.83s"/>
      </text>
      <text class="num" x="90" y="120" display="none">60
        <set attributeName="display" to="inline" begin="0.83s"/>
        <set attributeName="display" to="none"   begin="1.08s"/>
      </text>
      <text class="num" x="90" y="120" display="none">80
        <set attributeName="display" to="inline" begin="1.08s"/>
        <set attributeName="display" to="none"   begin="1.33s"/>
      </text>
      <text class="num" x="90" y="120" display="none">100
        <set attributeName="display" to="inline" begin="1.33s"/>
        <animateTransform attributeName="transform" type="scale"
          values="1;1.15;1" dur="0.5s" begin="1.33s" additive="sum"/>
      </text>
    </g>

    <text class="label" x="90" y="160">Accessibility</text>
  </g>

  <!-- ============================================================== -->
  <!-- Card 3: Best Practices — icon: shield-check (stagger +0.16s)    -->
  <!-- ============================================================== -->
  <g transform="translate(456,30)">
    <use href="#card" width="180" height="180"/>

    <rect x="68" y="22" width="44" height="44" rx="12" fill="url(#iconGrad)"/>
    <g transform="translate(78,32)" class="icon-stroke">
      <path d="M20 13c0 5-3.5 7.5-7.66 8.95a1 1 0 0 1-.67-.01C7.5 20.5 4 18 4 13V6a1 1 0 0 1 1-1c2 0 4.5-1.2 6.24-2.72a1.17 1.17 0 0 1 1.52 0C14.51 3.81 17 5 19 5a1 1 0 0 1 1 1Z"/>
      <path d="m9 12 2 2 4-4"/>
    </g>

    <g class="num-glow">
      <text class="num" x="90" y="120">0
        <set attributeName="display" to="none" begin="0.41s"/>
      </text>
      <text class="num" x="90" y="120" display="none">20
        <set attributeName="display" to="inline" begin="0.41s"/>
        <set attributeName="display" to="none"   begin="0.66s"/>
      </text>
      <text class="num" x="90" y="120" display="none">40
        <set attributeName="display" to="inline" begin="0.66s"/>
        <set attributeName="display" to="none"   begin="0.91s"/>
      </text>
      <text class="num" x="90" y="120" display="none">60
        <set attributeName="display" to="inline" begin="0.91s"/>
        <set attributeName="display" to="none"   begin="1.16s"/>
      </text>
      <text class="num" x="90" y="120" display="none">80
        <set attributeName="display" to="inline" begin="1.16s"/>
        <set attributeName="display" to="none"   begin="1.41s"/>
      </text>
      <text class="num" x="90" y="120" display="none">100
        <set attributeName="display" to="inline" begin="1.41s"/>
        <animateTransform attributeName="transform" type="scale"
          values="1;1.15;1" dur="0.5s" begin="1.41s" additive="sum"/>
      </text>
    </g>

    <text class="label" x="90" y="160">Best Practices</text>
  </g>

  <!-- ============================================================== -->
  <!-- Card 4: SEO — icon: search (stagger +0.24s)                     -->
  <!-- ============================================================== -->
  <g transform="translate(668,30)">
    <use href="#card" width="180" height="180"/>

    <rect x="68" y="22" width="44" height="44" rx="12" fill="url(#iconGrad)"/>
    <g transform="translate(78,32)" class="icon-stroke">
      <circle cx="11" cy="11" r="7"/>
      <path d="m21 21-4.3-4.3"/>
    </g>

    <g class="num-glow">
      <text class="num" x="90" y="120">0
        <set attributeName="display" to="none" begin="0.49s"/>
      </text>
      <text class="num" x="90" y="120" display="none">20
        <set attributeName="display" to="inline" begin="0.49s"/>
        <set attributeName="display" to="none"   begin="0.74s"/>
      </text>
      <text class="num" x="90" y="120" display="none">40
        <set attributeName="display" to="inline" begin="0.74s"/>
        <set attributeName="display" to="none"   begin="0.99s"/>
      </text>
      <text class="num" x="90" y="120" display="none">60
        <set attributeName="display" to="inline" begin="0.99s"/>
        <set attributeName="display" to="none"   begin="1.24s"/>
      </text>
      <text class="num" x="90" y="120" display="none">80
        <set attributeName="display" to="inline" begin="1.24s"/>
        <set attributeName="display" to="none"   begin="1.49s"/>
      </text>
      <text class="num" x="90" y="120" display="none">100
        <set attributeName="display" to="inline" begin="1.49s"/>
        <animateTransform attributeName="transform" type="scale"
          values="1;1.15;1" dur="0.5s" begin="1.49s" additive="sum"/>
      </text>
    </g>

    <text class="label" x="90" y="160">SEO</text>
  </g>
</svg>
